<svg width="100%" height="100%" viewBox="0 0 24 24" fill="#ff5000" xmlns="http://www.w3.org/2000/svg">
    <path d="M21.9989 11.8701C22.0593 7.63476 19.597 3.93933 15.8885 2.44617L14.2979 7.71778H16.7134L11.4796 17.5038V10.1224H11.3069V10.1221H8.43093L9.52692 2C5.04309 3.04217 1.93322 7.11629 2.00109 11.8701C1.92127 17.457 6.22939 22.1082 12.0001 21.9981C17.7706 22.1082 22.0786 17.457 21.9989 11.8701Z" fill="#ff5000"></path>
    <path d="M21.9989 11.8701C22.0593 7.63476 19.597 3.93933 15.8885 2.44617L14.2979 7.71778H16.7134L11.4796 17.5038V10.1224H11.3069V10.1221H8.43093L9.52692 2C5.04309 3.04217 1.93322 7.11629 2.00109 11.8701C1.92127 17.457 6.22939 22.1082 12.0001 21.9981C17.7706 22.1082 22.0786 17.457 21.9989 11.8701Z" fill="#ff5000"></path>
</svg>
